<?xml version="1.0" encoding="UTF-8"?>
<!DOCTYPE svg PUBLIC "-//W3C//DTD SVG 1.1//EN" "http://www.w3.org/Graphics/SVG/1.1/DTD/svg11.dtd">
<!-- Creator: CorelDRAW 2019 (64-Bit) -->
<svg xmlns="http://www.w3.org/2000/svg" xml:space="preserve" width="131.203mm" height="35.2067mm" version="1.1" style="shape-rendering:geometricPrecision; text-rendering:geometricPrecision; image-rendering:optimizeQuality; fill-rule:evenodd; clip-rule:evenodd"
viewBox="0 0 20076.71 5387.35"
 xmlns:xlink="http://www.w3.org/1999/xlink">
 <defs>
  <style type="text/css">
   <![CDATA[
    .fil1 {fill:#016AC2}
    .fil0 {fill:white}
   ]]>
  </style>
 </defs>
 <g id="Capa_x0020_1">
  <metadata id="CorelCorpID_0Corel-Layer"/>
  <g id="_2060935849360">
   <g>
    <path class="fil0" d="M3114.18 676.92l-15.23 653.86 -1.64 797.74c65.28,63.82 234.26,139.85 332.82,199.42 107.54,65 234.98,131.18 329.25,194.41 67.16,13.97 557.94,303.94 615.95,351.2 69.55,18.9 241.14,133.17 309.02,171.32 105.23,59.17 190.16,117.27 305.43,170.3 17.81,-23.21 4.65,8.25 13.37,-30.89l4.65 -173.07c-0.15,-146.39 9.49,-608.82 -5.83,-691.44l-1092.72 -559.83 -3.55 -1321.15 -596.75 -343.5c-55.18,-29.96 -164.22,-110.31 -205.64,-84.62 28.52,36.19 12.36,1.71 16.45,50.51l0.57 257.89c-4.13,119.07 -5.02,240.18 -6.17,357.85z"/>
    <path class="fil0" d="M1286.52 3206.27c93.4,73.71 545.55,318.56 583.25,390.42 19.02,-28.89 609.21,-358.39 618.49,-360.55 76.57,-17.8 493.67,271.03 644.34,333.78 157.26,-100.15 331.89,-234.93 489.74,-345.05 148.97,-103.89 90.5,-54.69 113.22,-299.74 12.17,-131.26 15.42,-265.17 23.83,-402.8 -94.28,-63.23 -221.71,-129.41 -329.25,-194.41 -98.56,-59.57 -267.54,-135.59 -332.82,-199.42l1.64 -797.74c-116.89,-10.59 -549.63,-293.46 -610.49,-262.23 29.03,39.39 17.43,112.5 17.49,162.55 0.41,281.42 12.73,1088.33 -8.03,1252.33 -250.02,121.04 -911.85,572.42 -1211.4,722.84z"/>
    <path class="fil0" d="M1869.77 3596.68c-101.33,49.92 -212.18,117.57 -308.21,171.64 -67.76,38.16 -245.87,152.13 -304.01,166.75 -43.72,50.01 -222.14,133.83 -293.69,175.74l-300.67 174.4 -18.1 -175.88 3.95 174.81 691.35 442.96c115.7,73.48 113.88,22.3 231.11,-51.45 103.23,-64.93 900.22,-589.13 931.65,-595.25 44.96,-8.77 389.96,234.35 465.46,283.07 155.97,100.69 304.94,194.38 465.18,299.75 239.97,157.78 102.49,148.43 697.07,-223.78 74,-46.33 155.94,-112.82 232.85,-148.25l1.58 -108.25 -6.23 99.13c-22.49,-7.48 -548.87,-290.31 -595.6,-346.53 -65.32,-19.4 -600.25,-330.49 -630.84,-365.64 -150.66,-62.75 -567.77,-351.58 -644.34,-333.78 -9.29,2.16 -599.47,331.66 -618.49,360.55z"/>
    <path class="fil0" d="M7.8 3202.12c81.21,-18.36 238.04,-124.42 317.33,-170.46 91.35,-53.04 236.37,-129.06 314.32,-184.07l5.85 78.62c24.41,-79.3 -33.01,-53.07 121.1,-143.95 52.06,-30.7 111.46,-64.07 168.72,-96.8 76.97,-43.99 275.79,-174.87 342.48,-189.96 21.38,-50.91 -1.3,-9.87 55.1,-45.23 131.98,-82.75 36.82,-50.28 223.09,-129.67 131.43,-56.01 96.33,-44.93 178.36,-100.87l79.4 -40.9c21.58,-11.38 9.15,3.73 32.43,-20.89 59.71,-154.99 -44.8,-620.44 33.37,-732.26 -9.79,-11.84 -20.86,2.14 -22.14,-90.59 -1.82,-131.83 -10.53,-576.54 14.98,-640.53l0.15 -680.25c-37.81,-31.38 -140.38,56.01 -185.4,83.26 -69.06,41.82 -129.75,78.25 -200.9,122.72 -82,51.22 -335.76,192.9 -386.76,245.87l8.32 1298.13 -1100.66 549.36 0.86 888.47z"/>
    <path class="fil0" d="M1879.35 1425.68c-78.18,111.83 26.33,577.27 -33.37,732.26 -23.27,24.62 -10.85,9.5 -32.43,20.89l-79.4 40.9c-82.03,55.94 -46.93,44.87 -178.36,100.87 -186.27,79.39 -91.11,46.92 -223.09,129.67 -56.4,35.36 -33.73,-5.68 -55.1,45.23 -9.75,114.77 -22,640.88 8.92,710.76 299.55,-150.42 961.38,-601.8 1211.4,-722.84 20.76,-164.01 8.45,-970.91 8.03,-1252.33 -0.06,-50.05 11.54,-123.17 -17.49,-162.55 -100.55,39.77 -214.41,122.77 -312.56,180.07 -104.21,60.86 -205.22,114.29 -296.55,177.06z"/>
    <path class="fil0" d="M4363.47 1407.57c77.58,57.31 219.4,116.51 305.64,165.54 61.64,35.07 271.18,157.63 322.52,152.99 32,-94.46 11.34,-525.87 6.76,-660.91 -140.9,-63.75 -501.03,-320.18 -616.52,-360.65l-18.41 703.04z"/>
    <path class="fil0" d="M13.82 1066.19l-2.3 679.56c109.79,-48.86 212.9,-107.44 320.06,-164.86 56.56,-30.31 96.49,-55.03 151.4,-83.95 54.09,-28.49 112.15,-51.63 159,-89.26l4.73 -676.55 -632.89 335.05z"/>
    <path class="fil0" d="M1956.24 4997.19l553.06 383.26 560.84 -383.26c-27.6,-23.03 -524.54,-295.21 -564.84,-304.6 -68.78,-16.05 -522.06,277.09 -549.05,304.6z"/>
    <path class="fil0" d="M7.8 3202.12c24.33,59.75 240.07,158.42 299.14,189.27 93.37,48.74 242.49,149.87 330.78,176.05l7.57 -641.23 -5.85 -78.62c-77.95,55.01 -222.97,131.03 -314.32,184.07 -79.3,46.04 -236.13,152.1 -317.33,170.46z"/>
    <path class="fil0" d="M1872.19 694.56c86,-16.79 240.26,-124.31 326.97,-172.56l282.2 -160.32c45.22,-32.46 19.23,-0.37 29.44,-33.3 -123.89,-63.17 -537.24,-297.5 -638.46,-314.07l-0.15 680.25z"/>
    <path class="fil0" d="M639.43 3731.95l5.66 377.38 18.1 175.88 300.67 -174.4c71.55,-41.91 249.97,-125.74 293.69,-175.74 -97.9,-59.97 -201.37,-113.82 -304.22,-175.3 -85.66,-51.22 -236.4,-151.28 -318.79,-176.69l4.88 148.87z"/>
    <path class="fil0" d="M3763.45 3935.56c46.73,56.22 573.11,339.05 595.6,346.53l6.23 -99.13 12.35 -612.66c-32.53,24.07 -114.14,68.98 -154.83,92.55 -54.54,31.57 -105.32,62.85 -156.52,93.76 -50.76,30.65 -100.86,61.22 -150.54,90.94 -51.09,30.56 -101.76,60.18 -152.29,88.02z"/>
    <path class="fil0" d="M4377.62 3570.3c86.87,-56.72 217.76,-122.88 312.77,-174.78l225.58 -127.3c30.42,-15.81 54.26,-24.33 73.82,-53.07 -115.27,-53.02 -200.2,-111.12 -305.43,-170.3 -67.88,-38.15 -239.48,-152.42 -309.02,-171.32l2.28 696.76z"/>
    <path class="fil0" d="M2536.21 326.58c23.26,47.65 563.57,344.98 577.97,350.34 1.15,-117.67 2.04,-238.79 6.17,-357.85l-0.57 -257.89c-4.09,-48.8 12.07,-14.32 -16.45,-50.51l-567.12 315.91z"/>
   </g>
   <g>
    <path class="fil0" d="M17990.71 4208.38l363.61 27.91 25.42 -1222.8 618.68 -2.45c118.64,264.08 483.59,1048.59 620.22,1227.85l439.11 0.75c-87.15,-401.69 -517.35,-887.93 -612.8,-1295.85 256.05,-98.97 425.7,-235.71 495.86,-534.91 147.28,-628.16 -191.43,-1081.1 -966.19,-1078.58 -328.58,1.07 -689.27,-23.99 -1011.73,18.99 -11.94,481.72 -65.91,2570.24 27.82,2859.1z"/>
    <path class="fil0" d="M15027.59 4221.6l417.52 15.82 241.73 -629.43 1176.21 -5.31c56.69,204.02 153.04,476.95 234.46,630.21l380.52 9.26c-7.61,-315.71 -866.8,-2462.76 -1019.74,-2910.69l-345.93 5.2 -1084.75 2884.94z"/>
    <path class="fil0" d="M11178.13 2665.83l-32.75 387.74 578.43 18.58c0.18,487.23 -175.3,860.43 -715.28,777.99 -526.47,-80.37 -504.13,-550.28 -504.08,-1054.86 0.05,-499.63 13.07,-1011.74 483.67,-1087.41 251.12,-40.38 437.45,35.7 560.33,197.87 240.43,317.38 30.05,270.4 569.27,250.13 -128.12,-703.97 -938.4,-1154.06 -1604.02,-694.24 -237.58,164.11 -394.56,455.39 -416.06,859.55 -16.04,301.57 -28.19,996.38 46.7,1256.76 203.21,706.51 1165.1,937.17 1700.79,402.23 267.94,-267.56 311.72,-565.26 308.81,-1027.55 -2.31,-367.66 20.96,-311.23 -975.81,-286.78z"/>
    <polygon class="fil0" points="6234.67,4236.4 6628.95,4228.67 6643.83,3001.17 7898.56,3005.66 7905.01,4237.64 8276.66,4237.69 8299.45,1332.26 7901.66,1330.83 7895.73,2606.31 6672.87,2617.9 6638.09,1364.25 6234.82,1324.81 "/>
    <path class="fil0" d="M12708.27 1553.72c-0.17,1415.71 -267.92,2745.81 1084.01,2705.98 1214.06,-35.75 976.42,-1378.29 971.21,-2705.98l-1.67 -220.67 -419.12 4.19 -5.1 1458.07c-0.05,525.81 55.16,920.98 -426.65,1039.05 -502,123.03 -789.95,-167.24 -790.21,-661.19l0.58 -1810.65 -411.55 -37.51 -1.5 228.69z"/>
    <polygon class="fil0" points="9041.11,1661.68 9052.32,4237.56 9440.52,4228.84 9451.42,1357.38 9040.54,1326.81 "/>
    <path class="fil1" d="M18376.24 2363.46l19.17 246.32c347.16,16.39 887.58,81.1 1052.87,-148.02 213.02,-295.24 55.16,-746.66 -366.76,-746.19l-703.39 1.67 -1.9 646.22z"/>
    <path class="fil1" d="M15842.31 3200.81l861.21 -1.59 -406.77 -1234.48c-49.41,44.31 -28.98,-5.69 -86.3,114.83l-170.53 480.16c-78.19,235.62 -149.52,413.89 -197.61,641.08z"/>
   </g>
  </g>
 </g>
</svg>
